name Walk3.mot
datacolumns 19
datarows 22
range 1.55500000 1.66000000
endheader

                time	   L_ground_force_vx	   L_ground_force_vy	   L_ground_force_vz	   L_ground_force_px	   L_ground_force_py	   L_ground_force_pz	   R_ground_force_vx	   R_ground_force_vy	   R_ground_force_vz	   R_ground_force_px	   R_ground_force_py	   R_ground_force_pz	   L_ground_torque_x	   L_ground_torque_y	   L_ground_torque_z	   R_ground_torque_x	   R_ground_torque_y	   R_ground_torque_z	
          1.55500000	         -0.00000000	         -0.00000000	          0.00000000	          0.00000000	          0.00000000	          0.00000000	         -0.43144117	         -5.85493680	         -0.95479232	         -0.00006442	          0.00000000	          0.00007127	          0.00000000	          0.00000000	          0.00000000	          0.00000000	          0.00593546	          0.00000000	
          1.56000000	         -0.00000000	          0.00000000	          0.00000000	          0.00000000	          0.00000000	          0.00000000	        -13.46346107	        135.18048061	          3.25540560	         -0.24954267	          0.00000000	          0.30305653	          0.00000000	         -0.00000000	          0.00000000	          0.00000000	          0.02682255	          0.00000000	
          1.56500000	         -0.00000000	          0.00000000	         -0.00000000	          0.00000000	          0.00000000	          0.00000000	        -15.88673094	        325.03606097	         15.87675679	         -0.31064364	          0.00000000	          0.37652896	          0.00000000	         -0.00000000	          0.00000000	          0.00000000	          0.01136287	          0.00000000	
          1.57000000	          0.00000000	          0.00000000	         -0.00000000	         -0.00000000	          0.00000000	         -0.00000000	        -12.12965271	        432.25910707	         33.47205959	         -0.29916662	          0.00000000	          0.36310191	          0.00000000	         -0.00000000	          0.00000000	          0.00000000	         -0.09322627	          0.00000000	
          1.57500000	          0.00000000	         -0.00000000	         -0.00000000	         -0.00000000	          0.00000000	         -0.00000000	        -15.92445431	        438.54086748	         44.66682646	         -0.28705903	          0.00000000	          0.35116859	          0.00000000	          0.00000000	          0.00000000	          0.00000000	         -0.25008942	          0.00000000	
          1.58000000	          0.00000000	         -0.00000000	          0.00000000	         -0.00000000	          0.00000000	         -0.00000000	        -30.16529076	        446.42960271	         45.71436023	         -0.28273618	          0.00000000	          0.34946431	          0.00000000	          0.00000000	          0.00000000	          0.00000000	         -0.51599002	          0.00000000	
          1.58500000	         -0.00000000	         -0.00000000	          0.00000000	          0.00000000	          0.00000000	          0.00000000	        -53.95798975	        477.92554130	         40.51193103	         -0.28048851	          0.00000000	          0.35041256	          0.00000000	         -0.00000000	          0.00000000	          0.00000000	         -0.79422928	          0.00000000	
          1.59000000	         -0.00000000	          0.00000000	         -0.00000000	          0.00000000	          0.00000000	          0.00000000	        -82.32069929	        495.86716344	         33.52098127	         -0.27731476	          0.00000000	          0.35132527	          0.00000000	         -0.00000000	          0.00000000	          0.00000000	         -0.93952003	          0.00000000	
          1.59500000	          0.00000000	          0.00000000	         -0.00000000	          0.00000000	          0.00000000	          0.00000000	       -103.15927586	        497.82456605	         24.83046019	         -0.27265395	          0.00000000	          0.35251880	          0.00000000	         -0.00000000	          0.00000000	          0.00000000	         -0.80616222	          0.00000000	
          1.60000000	          0.00000000	         -0.00000000	         -0.00000000	         -0.00000000	          0.00000000	         -0.00000000	       -108.21906933	        515.91455687	         11.71532914	         -0.26624884	          0.00000000	          0.35403047	          0.00000000	          0.00000000	          0.00000000	          0.00000000	         -0.12566293	          0.00000000	
          1.60500000	          0.00000000	         -0.00000000	          0.00000000	         -0.00000000	          0.00000000	         -0.00000000	       -104.96329087	        562.59087455	         -6.34642917	         -0.25959791	          0.00000000	          0.35562512	          0.00000000	          0.00000000	          0.00000000	          0.00000000	          0.94595295	          0.00000000	
          1.61000000	         -0.00000000	         -0.00000000	          0.00000000	          0.00000000	          0.00000000	          0.00000000	       -108.48749062	        611.56398545	        -22.75523222	         -0.25458830	          0.00000000	          0.35684784	          0.00000000	          0.00000000	          0.00000000	          0.00000000	          1.82049829	          0.00000000	
          1.61500000	         -0.00000000	          0.00000000	          0.00000000	          0.00000000	          0.00000000	          0.00000000	       -123.24021813	        635.94051713	        -30.96690514	         -0.25060530	          0.00000000	          0.35735627	          0.00000000	         -0.00000000	          0.00000000	          0.00000000	          2.03398244	          0.00000000	
          1.62000000	         -0.00000000	          0.00000000	         -0.00000000	          0.00000000	          0.00000000	          0.00000000	       -139.95049171	        643.60993192	        -34.25480268	         -0.24616353	          0.00000000	          0.35741953	          0.00000000	         -0.00000000	          0.00000000	          0.00000000	          1.70669994	          0.00000000	
          1.62500000	          0.00000000	          0.00000000	         -0.00000000	         -0.00000000	          0.00000000	         -0.00000000	       -150.48462252	        658.83022696	        -36.88680882	         -0.24160849	          0.00000000	          0.35716245	          0.00000000	         -0.00000000	          0.00000000	          0.00000000	          1.18898557	          0.00000000	
          1.63000000	          0.00000000	         -0.00000000	         -0.00000000	         -0.00000000	          0.00000000	         -0.00000000	       -155.14372567	        686.34178964	        -38.40831802	         -0.23834188	          0.00000000	          0.35689297	          0.00000000	          0.00000000	          0.00000000	          0.00000000	          0.86813170	          0.00000000	
          1.63500000	          0.00000000	         -0.00000000	          0.00000000	         -0.00000000	          0.00000000	         -0.00000000	       -156.44084453	        717.41053554	        -38.52328228	         -0.23659267	          0.00000000	          0.35670557	          0.00000000	          0.00000000	          0.00000000	          0.00000000	          0.87407990	          0.00000000	
          1.64000000	         -0.00000000	         -0.00000000	          0.00000000	          0.00000000	          0.00000000	          0.00000000	       -155.47081555	        750.64975883	        -37.94052099	         -0.23558399	          0.00000000	          0.35634062	          0.00000000	          0.00000000	          0.00000000	          0.00000000	          1.01234513	          0.00000000	
          1.64500000	         -0.00000000	          0.00000000	         -0.00000000	          0.00000000	          0.00000000	          0.00000000	       -152.57826990	        786.32784733	        -36.37349171	         -0.23485111	          0.00000000	          0.35574957	          0.00000000	         -0.00000000	          0.00000000	          0.00000000	          1.06813317	          0.00000000	
          1.65000000	         -0.00000000	          0.00000000	         -0.00000000	          0.00000000	          0.00000000	          0.00000000	       -148.33724627	        819.21187478	        -32.99201294	         -0.23429278	          0.00000000	          0.35509885	          0.00000000	         -0.00000000	          0.00000000	          0.00000000	          0.95637437	          0.00000000	
          1.65500000	          0.00000000	          0.00000000	         -0.00000000	         -0.00000000	          0.00000000	         -0.00000000	       -143.23391665	        845.33862336	        -28.00364853	         -0.23381798	          0.00000000	          0.35419392	          0.00000000	          0.00000000	          0.00000000	          0.00000000	          0.69783096	          0.00000000	
          1.66000000	          0.00000000	         -0.00000000	          0.00000000	         -0.00000000	          0.00000000	         -0.00000000	       -137.45678072	        864.22593660	        -22.88207927	         -0.23333713	          0.00000000	          0.35347225	          0.00000000	          0.00000000	          0.00000000	          0.00000000	          0.41201896	          0.00000000	
